<svg xmlns="http://www.w3.org/2000/svg" width="47.253" height="31.046" viewBox="0 0 47.253 31.046"><g transform="translate(0.1 -88.077)"><g transform="translate(0.689 100.653)"><path d="M16.34,223.935a8.84,8.84,0,1,0,8.84,8.84A8.84,8.84,0,0,0,16.34,223.935Zm0,14.734a5.894,5.894,0,1,1,5.894-5.894A5.894,5.894,0,0,1,16.34,238.669Z" transform="translate(-7.5 -223.935)" fill="#36deff"/><circle cx="2.21" cy="2.21" r="2.21" transform="translate(6.63 6.63)" fill="#36deff"/><circle cx="2.947" cy="2.947" r="2.947" transform="translate(17.681 5.894)" fill="#36deff"/></g><path d="M140.915,122.673h-3.684a1.473,1.473,0,0,1,0-2.947h3.684a1.473,1.473,0,0,1,0,2.947Z" transform="translate(-123.282 -28.65)" fill="#36deff"/><path d="M320.952,223.935a8.84,8.84,0,1,0,8.84,8.84A8.84,8.84,0,0,0,320.952,223.935Zm0,14.734a5.894,5.894,0,1,1,5.894-5.894A5.894,5.894,0,0,1,320.952,238.669Z" transform="translate(-283.429 -123.282)" fill="#36deff"/><circle cx="2.21" cy="2.21" r="2.21" transform="translate(35.314 107.284)" fill="#3a3838"/><path d="M37.524,99.964a9.5,9.5,0,0,0-2.822.427L31.887,93.2a.784.784,0,0,1,.176-.84l1.744-1.744A1.426,1.426,0,0,0,32.8,88.177H30.157a.689.689,0,1,0,0,1.379H32.8a.047.047,0,0,1,.034.081l-1.744,1.744A2.163,2.163,0,0,0,30.6,93.7l.263.673L23.415,98.1a3.749,3.749,0,0,1-1.668.394H18.376l-1.259-3.778h.517a2.163,2.163,0,1,0,0-4.325H13.95a2.163,2.163,0,0,0,0,4.325h1.713l1.684,5.052A12.382,12.382,0,0,0,9.53,97.017a12.582,12.582,0,0,0-2.339.219.689.689,0,0,0,.257,1.354A11.2,11.2,0,0,1,9.53,98.4a11.01,11.01,0,0,1,8.068,3.477l-1.212,1.01a9.525,9.525,0,1,0,2.33,9.148,3.616,3.616,0,0,0,3.076,1.067l.533,1.6h-.271a.689.689,0,0,0,0,1.379H25a.689.689,0,0,0,0-1.379H23.778l-.679-2.037a3.63,3.63,0,0,0,1.095-5.387l8.12-9.2,1.1,2.823a9.528,9.528,0,1,0,4.105-.931ZM13.166,92.55a.785.785,0,0,1,.784-.784h3.683a.784.784,0,0,1,0,1.568H13.95a.785.785,0,0,1-.784-.784Zm8.581,7.319a5.136,5.136,0,0,0,1.873-.358l2.968,2.968-3.426,3.883a3.608,3.608,0,0,0-2.319-.472l-2.007-6.02Zm-3.327,3.113,1.115,3.344a3.656,3.656,0,0,0-.819.63,9.5,9.5,0,0,0-1.446-3.016ZM12.345,108.8a2.88,2.88,0,0,0-.212-.584l1.8-1.5a5.169,5.169,0,0,1,.755,2.082H12.345Zm-1.295.689a1.521,1.521,0,1,1-1.521-1.521A1.522,1.522,0,0,1,11.05,109.494Zm5.026-.689A6.541,6.541,0,0,0,15,105.834l1.21-1.008a8.1,8.1,0,0,1,1.443,3.979Zm-6.547,8.84a8.151,8.151,0,1,1,5.795-13.877l-1.21,1.009a6.579,6.579,0,1,0,1.055,8.115.689.689,0,0,0-1.18-.713,5.208,5.208,0,1,1-.94-6.515l-1.8,1.5a2.9,2.9,0,1,0,1.095,3.021h5.306A8.162,8.162,0,0,1,9.53,117.645Zm13.12-6.331-.68-2.039a.689.689,0,0,0-1.308.436l.68,2.04h-.026a2.26,2.26,0,1,1,1.333-.437Zm4.851-9.871-2.565-2.565,6.435-3.217.379.968Zm10.023,16.2a8.15,8.15,0,0,1-3.6-15.462l.573,1.465a6.583,6.583,0,1,0,4.354-.6.689.689,0,1,0-.276,1.35,5.205,5.205,0,1,1-3.571.546l1.88,4.8a.689.689,0,1,0,1.284-.5l-2.96-7.564a8.151,8.151,0,1,1,2.318,15.966Z" fill="#3a3838" stroke="#3a3838" stroke-width="0.2"/></g></svg>