<svg xmlns="http://www.w3.org/2000/svg" width="71.849" height="44.51" viewBox="0 0 71.849 44.51"><g transform="translate(-1116.97 -1030.425)"><circle cx="5.024" cy="5.024" r="5.024" transform="translate(1125.243 1064.131)" fill="#36deff"/><path d="M1179.251,1069.155a5.019,5.019,0,1,1-5.025-5.024A5.019,5.019,0,0,1,1179.251,1069.155Z" fill="#36deff"/><path d="M1184.275,1037.754h-13.816v12.56h17.584v-8.792a3.764,3.764,0,0,0-3.758-3.768Z" fill="#36deff"/><path d="M1185.531,1056.594h-2.512v5.025h5.024v-2.512A2.52,2.52,0,0,0,1185.531,1056.594Z" fill="#36deff"/><path d="M1135.949,1070.309l.082-.4h32.47l.082.4a5.78,5.78,0,0,0,11.326,0l.082-.4h8.828v-28.387a4.536,4.536,0,0,0-4.525-4.524h-13.06v-3.557l-9.048-3.016v25.413h-41.948a3.278,3.278,0,0,0-3.268,3.268v10.8h7.571l.082.4a5.78,5.78,0,0,0,11.326,0Zm38.3,3.113h0a4.268,4.268,0,0,1,0-8.536h0a4.268,4.268,0,0,1,0,8.536Zm13.059-12.561H1183.8v-3.511h1.756a1.761,1.761,0,0,1,1.756,1.754Zm-16.072-22.352H1184.3a3.018,3.018,0,0,1,3.012,3.012v8.036h-16.072Zm-7.536-5.987,6.024,2.008V1037H1163.7Zm0,5.988h6.024v12.559h17.584v5.19l-.666-.236c-.053-.018-.11-.031-.165-.044l-.314-.08a3.172,3.172,0,0,0-.615-.062H1163.7Zm23.608,29.888h-7.313l-.083-.4a6.554,6.554,0,0,0-.318-1.023c-.025-.059-.056-.118-.087-.177l-.07-.139a6.2,6.2,0,0,0-.34-.624c-.057-.086-.124-.174-.193-.263a6.2,6.2,0,0,0-.458-.559c-.092-.1-.194-.195-.3-.292a6.055,6.055,0,0,0-.488-.4c-.114-.083-.225-.166-.343-.238a5.727,5.727,0,0,0-.573-.31l-.129-.063c-.08-.04-.161-.08-.244-.113a5.677,5.677,0,0,0-.681-.21l-.152-.044a1.591,1.591,0,0,0-.191-.051,5.375,5.375,0,0,0-2.08-.023,1.5,1.5,0,0,0-.175.043l-.132.034a5.242,5.242,0,0,0-.651.182c-.083.028-.163.066-.245.1l-.1.045a5.575,5.575,0,0,0-.551.267c-.1.056-.2.123-.3.189l-.185.114c-.049.03-.1.058-.146.092l-.133.1H1163.7v-7.282h18.584v5.025h5.024v6.018m-61.878-2.359a5.535,5.535,0,0,0-.335.614l-.072.141c-.032.061-.064.122-.091.185a5.7,5.7,0,0,0-.3.959h0l-.029.1h0l-.085.365-.395,0h-5.644V1059.1a1.761,1.761,0,0,1,1.755-1.755h41.953v8.792h7.011l-.27.767a5.808,5.808,0,0,0-.338,1.07l-.122.325-.375.094h-32.044l-.095-.378a6.54,6.54,0,0,0-.323-1.043,1.933,1.933,0,0,0-.087-.177l-.07-.139a5.784,5.784,0,0,0-.339-.622c-.053-.082-.115-.163-.178-.245l-.061-.082a5.769,5.769,0,0,0-.413-.5c-.092-.1-.194-.195-.3-.292a6.026,6.026,0,0,0-.487-.4c-.113-.083-.225-.166-.344-.238a5.635,5.635,0,0,0-.573-.31l-.124-.061c-.081-.041-.163-.082-.248-.115a5.811,5.811,0,0,0-.68-.211l-.157-.044a1.672,1.672,0,0,0-.187-.05,5.4,5.4,0,0,0-2.2,0,1.7,1.7,0,0,0-.193.051l-.151.043a6.026,6.026,0,0,0-.7.215c-.084.034-.17.077-.257.12l-.107.052a6.086,6.086,0,0,0-.575.311c-.114.073-.228.155-.342.239a5.59,5.59,0,0,0-.49.4c-.1.1-.2.192-.3.3a6.011,6.011,0,0,0-.406.493C1125.562,1065.85,1125.49,1065.94,1125.428,1066.039Zm4.858,7.383a4.268,4.268,0,1,1,4.268-4.268A4.273,4.273,0,0,1,1130.286,1073.422Z" fill="#3a3838"/><circle cx="1.256" cy="1.256" r="1.256" transform="translate(1129.035 1067.898)" fill="#3a3838"/><circle cx="1.253" cy="1.253" r="1.253" transform="translate(1172.996 1067.898)" fill="#3a3838"/></g></svg>