<svg xmlns="http://www.w3.org/2000/svg" width="74.515" height="27.655" viewBox="0 0 74.515 27.655"><g transform="translate(-1626 700.003)"><path d="M1629.477-687.607v-3.877l2.047-1.83,4.281,3.381-2.7,2.481Z" fill="#ffd825"/><path d="M296.165,177.636a4.754,4.754,0,0,0,.169,1.3,5.2,5.2,0,0,0,10.078,0,4.754,4.754,0,0,0,.169-1.3,5.208,5.208,0,0,0-10.417,0Z" transform="translate(1338.336 -856.003)" fill="#ffd825"/><path d="M301.4,176.335h0a1.3,1.3,0,0,1,1.3,1.3h0a1.3,1.3,0,0,1-1.3,1.3h0a1.3,1.3,0,0,1-1.3-1.3h0A1.3,1.3,0,0,1,301.4,176.335Z" transform="translate(1338.336 -856.003)" fill="#3a3838"/><path d="M296.165,177.636a4.754,4.754,0,0,0,.169,1.3,5.2,5.2,0,0,0,10.078,0,4.754,4.754,0,0,0,.169-1.3,5.208,5.208,0,0,0-10.417,0Z" transform="translate(1383.996 -856.003)" fill="#ffd825"/><path d="M268.952,165.332l3.685.273,20.925,1.615,3.906-2.6-6.51-3.906-2.044-1.224a18.745,18.745,0,0,0-9.674-2.682H261.009l-5.208,5.208,3.906,2.6Z" transform="translate(1383.996 -856.003)" fill="#ffd825"/><path d="M306.9,180.042l.131-.3h6.085a3.417,3.417,0,0,0,3.406-3.407,9.24,9.24,0,0,0-1.06-4.286c-.1-.181-.208-.379-.322-.562a9.245,9.245,0,0,0-3.723-3.409l-3.7-1.848a23.117,23.117,0,0,0-9.859-2.4l-.133,0-8.375-5.023a19.556,19.556,0,0,0-10.078-2.8H252.885l-8.281,8.282v3.906l-2.6,2.6v2.936a6.024,6.024,0,0,0,6.005,6.017h2.18l.13.3a6,6,0,0,0,11.008,0l.13-.3h34.3l.131.3a6,6,0,0,0,11.006,0ZM279.259,157.6h.008a17.932,17.932,0,0,1,9.255,2.572l7.467,4.475-2.621,1.749-20.092-1.55-2.068-7.244Zm-9.721,0,2.033,7.117L260,163.83l-2.917-1.944,4.279-4.281Zm-23.331,7.34,1.317-1.318L250.7,166l-1.716,1.715h-2.772Zm13.9,13.688-.035.14a4.4,4.4,0,0,1-8.523-.065,3.926,3.926,0,0,1-.136-1.076,4.407,4.407,0,0,1,8.813.006A4.03,4.03,0,0,1,260.109,178.633Zm1.723-.5v-.5a6.01,6.01,0,0,0-12.021,0v.5h-1.8a4.418,4.418,0,0,1-4.406-4.4l0-2.274,2.134-2.134h3.906l3.493-3.493-4.466-3.346,4.878-4.88H259.1l-4.531,4.53,4.894,3.265,8.837.683,2.191,12.054Zm10.285,0L269.948,166.2l22.832,1.758-.036,4.4-2.309,5.772Zm23.267-.509v.5h-3.221l2.221-5.554v-4.934l3.352-2.22.156,0a21.489,21.489,0,0,1,9.113,2.243l3.7,1.848a7.6,7.6,0,0,1,1.785,1.25l.92.864h-3.7v1.6h4.548l.125.316a7.572,7.572,0,0,1,.535,2.783,1.8,1.8,0,0,1-1.8,1.8H307.4v-.5a6.01,6.01,0,0,0-12.021,0Zm6.008,4.419a4.4,4.4,0,0,1-4.268-3.338,3.887,3.887,0,0,1-.136-1.076,4.406,4.406,0,0,1,8.813.006,3.949,3.949,0,0,1-.119.995l-.037.147A4.419,4.419,0,0,1,301.392,182.046Z" transform="translate(1383.996 -856.003)" fill="#3a3838"/><path d="M301.4,176.335h0a1.3,1.3,0,0,1,1.3,1.3h0a1.3,1.3,0,0,1-1.3,1.3h0a1.3,1.3,0,0,1-1.3-1.3h0A1.3,1.3,0,0,1,301.4,176.335Z" transform="translate(1383.996 -856.003)" fill="#3a3838"/></g></svg>