<svg xmlns="http://www.w3.org/2000/svg" width="68.761" height="25.52" viewBox="0 0 68.761 25.52"><g transform="translate(-1626 700.003)"><path d="M1629.478-688.047v-3.578l1.889-1.689,3.95,3.12-2.49,2.29Z" transform="translate(-0.269 -0.516)" fill="#36deff"/><path d="M296.165,177.234a4.386,4.386,0,0,0,.156,1.2,4.8,4.8,0,0,0,9.3,0,4.386,4.386,0,0,0,.156-1.2,4.806,4.806,0,0,0-9.613,0Z" transform="translate(1337.68 -857.271)" fill="#36deff"/><path d="M301.3,176.335h0a1.2,1.2,0,0,1,1.2,1.2h0a1.2,1.2,0,0,1-1.2,1.2h0a1.2,1.2,0,0,1-1.2-1.2h0A1.2,1.2,0,0,1,301.3,176.335Z" transform="translate(1337.376 -857.573)" fill="#3a3838"/><path d="M296.165,177.234a4.386,4.386,0,0,0,.156,1.2,4.8,4.8,0,0,0,9.3,0,4.386,4.386,0,0,0,.156-1.2,4.806,4.806,0,0,0-9.613,0Z" transform="translate(1379.814 -857.271)" fill="#36deff"/><path d="M267.937,164.674l3.4.252,19.309,1.49,3.6-2.4-6.007-3.6-1.886-1.129a17.3,17.3,0,0,0-8.927-2.475H260.607l-4.806,4.806,3.6,2.4Z" transform="translate(1382.931 -856.065)" fill="#36deff"/><path d="M301.886,178.186l.121-.278h5.615a3.153,3.153,0,0,0,3.143-3.144,8.527,8.527,0,0,0-.978-3.955c-.088-.167-.192-.35-.3-.519a8.531,8.531,0,0,0-3.436-3.146l-3.414-1.705a21.333,21.333,0,0,0-9.1-2.219l-.123,0-7.728-4.635a18.046,18.046,0,0,0-9.3-2.583H252.045l-7.642,7.643v3.6l-2.4,2.4v2.709a5.559,5.559,0,0,0,5.541,5.552h2.012l.12.278a5.538,5.538,0,0,0,10.158,0l.12-.278h31.654l.121.278a5.536,5.536,0,0,0,10.156,0Zm-25.5-20.7h.007a16.547,16.547,0,0,1,8.54,2.373l6.89,4.129L289.4,165.6l-18.541-1.43-1.908-6.685Zm-8.97,0,1.876,6.567-10.678-.823-2.692-1.794,3.949-3.95Zm-21.53,6.773,1.215-1.216,2.926,2.191-1.583,1.583h-2.558Zm12.829,12.631-.032.129a4.06,4.06,0,0,1-7.865-.06,3.623,3.623,0,0,1-.125-.993,4.066,4.066,0,0,1,8.133.006A3.719,3.719,0,0,1,258.711,176.885Zm1.59-.46v-.461a5.546,5.546,0,0,0-11.093,0v.461h-1.661a4.077,4.077,0,0,1-4.066-4.065l0-2.1,1.969-1.969h3.6l3.223-3.223-4.121-3.088,4.5-4.5h5.116l-4.181,4.18,4.516,3.013,8.155.63,2.022,11.123Zm9.491,0-2-11.011,21.069,1.622-.033,4.062-2.131,5.326Zm21.47-.47v.461H288.29l2.049-5.125V166.74l3.093-2.049.144,0a19.829,19.829,0,0,1,8.409,2.07l3.415,1.705a7.009,7.009,0,0,1,1.647,1.153l.849.8h-3.418V171.9h4.2l.115.292a6.987,6.987,0,0,1,.494,2.568,1.664,1.664,0,0,1-1.661,1.662h-5.269v-.461a5.546,5.546,0,0,0-11.093,0Zm5.544,4.078a4.06,4.06,0,0,1-3.938-3.08,3.588,3.588,0,0,1-.125-.993,4.066,4.066,0,0,1,8.133.006,3.643,3.643,0,0,1-.11.918l-.034.136A4.078,4.078,0,0,1,296.806,180.035Z" transform="translate(1383.996 -856.003)" fill="#3a3838"/><path d="M301.3,176.335h0a1.2,1.2,0,0,1,1.2,1.2h0a1.2,1.2,0,0,1-1.2,1.2h0a1.2,1.2,0,0,1-1.2-1.2h0A1.2,1.2,0,0,1,301.3,176.335Z" transform="translate(1379.51 -857.573)" fill="#3a3838"/></g></svg>