<svg xmlns="http://www.w3.org/2000/svg" width="60.817" height="31.065" viewBox="0 0 60.817 31.065"><g transform="translate(-1711.118 700.003)"><circle cx="4.25" cy="4.25" r="4.25" transform="translate(1718.132 -678.096)" fill="#ffd825"/><circle cx="4.25" cy="4.25" r="4.25" transform="translate(1755.324 -678.096)" fill="#ffd825"/><path d="M332.154,172.637h46.756l4.25,4.25h4.25a4.249,4.249,0,0,0-4.249-4.25h-3.189L369.347,162.01H330.029l-2.008,12.078a2.012,2.012,0,0,0-.117.669v2.122h4.25Z" transform="translate(1383.852 -857.108)" fill="#ffd825"/><path d="M340.711,186.75h0a1.063,1.063,0,0,1,1.063,1.063h0a1.063,1.063,0,0,1-1.063,1.063h0a1.063,1.063,0,0,1-1.063-1.063h0A1.063,1.063,0,0,1,340.711,186.75Z" transform="translate(1381.693 -861.658)" fill="#3a3838"/><path d="M386.284,186.75h0a1.063,1.063,0,0,1,1.063,1.063h0a1.063,1.063,0,0,1-1.063,1.063h0a1.063,1.063,0,0,1-1.063-1.063h0A1.063,1.063,0,0,1,386.284,186.75Z" transform="translate(1373.312 -861.658)" fill="#3a3838"/><path d="M380.4,183.138l.066-.326h7.471v-7.031l-.105-1.02a4.93,4.93,0,0,0-4.8-3.884H380.12l-10.246-10.243V156H329.247v4.815l-2,12.054a2.881,2.881,0,0,0-.128.792v9.15h6.41l.067.326a4.9,4.9,0,0,0,9.612,0l.067-.326h27.445l.066.326a4.9,4.9,0,0,0,9.612,0Zm2.633-10.955a3.61,3.61,0,0,1,3.391,2.393l.194.545H383.3l-2.938-2.938Zm-4.768-1.306H364.561v-9.317h4.39Zm-6.069,1.306-4.378,6.129h-3.26v-6.129Zm-41.642-14.874h38.008v2.938H330.556Zm22.316,13.568v-9.317h10.38v9.317Zm10.38,1.306v6.129h-10.38v-6.129Zm-11.69-10.623v9.317H341.183v-9.317Zm-22.581,8.885,1.475-8.885h9.418v9.317H329.9a2.733,2.733,0,0,0-.447.037h-.482Zm-.544,3.234.082-.464a1.489,1.489,0,0,1,1.375-1.031h1.475v2.938h-2.938Zm9.966,12.075h0a3.6,3.6,0,1,1,3.6-3.6A3.6,3.6,0,0,1,338.4,185.754Zm-4.791-4.629-.024.08-.069.323-.323-.026h-4.764v-5.066h4.25v-4.25h18.881v1.877h-7.438v1.306h7.438v4.257H368.49l5.313-7.439h4.7l4.25,4.25h3.872V181.5h-6.159l-.069-.323a5.593,5.593,0,0,0-.27-.869c-.022-.052-.047-.1-.073-.15l-.063-.124a5.056,5.056,0,0,0-.284-.525c-.05-.076-.109-.152-.167-.229a5.418,5.418,0,0,0-.384-.469c-.079-.085-.166-.167-.254-.248a5,5,0,0,0-.413-.341c-.1-.079-.2-.141-.294-.2a4.931,4.931,0,0,0-.484-.263l-.1-.049c-.07-.034-.14-.069-.214-.1a4.669,4.669,0,0,0-.579-.18l-.124-.035a1.255,1.255,0,0,0-.161-.041,4.628,4.628,0,0,0-1.871,0,1.458,1.458,0,0,0-.145.038c-.052.015-.1.029-.158.042a5.123,5.123,0,0,0-.581.18c-.069.028-.14.064-.211.1l-.1.047a4.919,4.919,0,0,0-.488.264c-.1.063-.2.132-.292.2-.143.107-.282.221-.414.342-.088.082-.174.164-.257.251a4.96,4.96,0,0,0-.344.418l-.052.069c-.053.07-.107.14-.155.215a4.666,4.666,0,0,0-.278.513l-.06.119c-.027.051-.054.1-.076.154a4.943,4.943,0,0,0-.255.82l-.069.323-.347.054h-27.1l-.074-.315a5.427,5.427,0,0,0-.273-.877,1.627,1.627,0,0,0-.073-.152l-.062-.122a5.152,5.152,0,0,0-.284-.525c-.047-.073-.1-.145-.16-.219a5.522,5.522,0,0,0-.392-.479c-.079-.084-.166-.166-.254-.247a4.7,4.7,0,0,0-.413-.341,3.442,3.442,0,0,0-.294-.2,4.851,4.851,0,0,0-.485-.263l-.1-.047c-.071-.035-.142-.071-.217-.1a4.713,4.713,0,0,0-.579-.18l-.123-.034a1.33,1.33,0,0,0-.161-.042,4.662,4.662,0,0,0-1.871,0c-.051.01-.1.024-.145.038s-.1.029-.158.042a4.968,4.968,0,0,0-.581.181c-.068.027-.138.062-.208.1l-.1.048a5,5,0,0,0-.487.264c-.1.063-.2.132-.291.2a5.184,5.184,0,0,0-.415.343c-.087.081-.174.162-.257.251a4.765,4.765,0,0,0-.344.417c-.1.134-.158.206-.208.284a4.73,4.73,0,0,0-.277.513l-.062.122a1.5,1.5,0,0,0-.075.154,4.826,4.826,0,0,0-.255.819m41.985,4.629h0a3.6,3.6,0,1,1,3.6-3.6A3.6,3.6,0,0,1,375.6,185.754Z" transform="translate(1383.996 -856.003)" fill="#3a3838"/></g></svg>