<svg xmlns="http://www.w3.org/2000/svg" width="74.902" height="27.65" viewBox="0 0 74.902 27.65"><g transform="translate(-1797.859 709)"><path d="M424.564,151.468l2.2,4.117,39.16,2.553,3.311-2.617-10.907-6.67-4.309-1.053-8.426.128-8.043.255-7.883,1.628Z" transform="translate(1383.996 -856.003)" fill="#ffd825"/><path d="M468.413,168.635a4.755,4.755,0,0,0,.169,1.3,5.2,5.2,0,0,0,10.078,0,4.755,4.755,0,0,0,.169-1.3,5.209,5.209,0,0,0-10.417,0Z" transform="translate(1383.996 -856.003)" fill="#ffd825"/><path d="M422.84,168.635a4.755,4.755,0,0,0,.169,1.3,5.2,5.2,0,0,0,10.078,0,4.755,4.755,0,0,0,.169-1.3,5.209,5.209,0,0,0-10.417,0Z" transform="translate(1383.996 -856.003)" fill="#ffd825"/><path d="M469.806,167.918h0Z" transform="translate(1383.996 -856.003)" fill="#3a3838"/><path d="M479.145,171.041l.13-.3h6.084a3.416,3.416,0,0,0,3.406-3.406v-6.842l-.236-.236a16.115,16.115,0,0,0-9.9-4.634l-8.736-.844-8.3-4.975a19.556,19.556,0,0,0-10.081-2.8H451.5l-8.231.048a64.491,64.491,0,0,0-11.552,1.352l-.411.087h0l-2.138.492c-1.507.374-2.9.772-4.266,1.215l-6.152,2.015h-4.888l2.849,7.121-2.466,2.46v2.936a6.027,6.027,0,0,0,6.01,6.01h2.181l.13.3a6,6,0,0,0,11.006,0l.131-.3h34.3l.131.3a6,6,0,0,0,11.006,0Zm-53.174-19.516c1.318-.411,2.627-.775,3.888-1.083l.428-.1,1.805,4.726-4.858-.233-1.871-3.116Zm-3.8,15.909a6.1,6.1,0,0,0-.113,1.2l0,.5h-1.8a4.418,4.418,0,0,1-4.406-4.406l0-2.271,2.13-2.135h2.273a3.419,3.419,0,0,0,3.369-2.906h-1.634a1.8,1.8,0,0,1-1.729,1.3H418.2l-1.962-4.906h2.851l4.722-1.57,2.494,4.153,6.175.3v7.763l-.943-.713c-.072-.051-.141-.093-.211-.135l-.107-.067a6.02,6.02,0,0,0-.623-.338c-.118-.055-.236-.107-.358-.155a5.628,5.628,0,0,0-.707-.22l-.143-.037c-.065-.018-.129-.037-.2-.049A5.975,5.975,0,0,0,422.173,167.434Zm10.185,2.191-.026.125a4.4,4.4,0,0,1-8.529-.044,3.863,3.863,0,0,1-.136-1.076,4.407,4.407,0,0,1,8.813.006A3.976,3.976,0,0,1,432.358,169.625Zm-.49-19.646.577-.118a62.97,62.97,0,0,1,11.574-1.249l.369-.006.189.584,1.93,6.557-12.669-.6ZM446.8,169.137H434.079V156.768l12.716.6Zm-.726-20.532h5.439a17.952,17.952,0,0,1,9.26,2.572l7.466,4.476-2.615,1.74-17.41-1.562Zm2.333,20.531V157.477l16.625,1.474-.037,4.5-2.31,5.684Zm19.678-2.747a6.35,6.35,0,0,0-.26.819c-.04.158-.062.245-.08.335a6.1,6.1,0,0,0-.111,1.1l-.005.495h-3.212l2.221-5.554v-4.934l3.313-2.21,8.534.781a14.4,14.4,0,0,1,5.891,1.872l1.62.933h-5.339v1.6h6.51v5.708a1.8,1.8,0,0,1-1.8,1.8h-5.7l-.005-.5a6.107,6.107,0,0,0-.109-1.082l-.039-.215a5.939,5.939,0,0,0-.3-.954l-.055-.127a6.107,6.107,0,0,0-1.2-1.8l-.111-.114a6.031,6.031,0,0,0-.708-.606,1.136,1.136,0,0,1-.109-.067h0l-.091-.056h0a5.964,5.964,0,0,0-.886-.481l-.091-.044h0a5.917,5.917,0,0,0-1.014-.314l-.193-.039a6.029,6.029,0,0,0-1.071-.107,1.114,1.114,0,0,1-.126.009,6.213,6.213,0,0,0-1.064.108,6.7,6.7,0,0,0-.943.241,5.846,5.846,0,0,0-3.376,3.2Zm5.569,6.66a4.452,4.452,0,0,1-1.112-.143,4.4,4.4,0,0,1-3.165-3.2,3.888,3.888,0,0,1-.135-1.071,4.53,4.53,0,0,1,.077-.814l.029-.125a4.753,4.753,0,0,1,.227-.744,4.416,4.416,0,0,1,2.884-2.543,5.114,5.114,0,0,1,.525-.112c.11-.018.221-.026.342-.035a4.652,4.652,0,0,1,.719.007c.139.011.221.019.3.031a4.425,4.425,0,0,1,.737.189,1.713,1.713,0,0,1,.241.08,4.21,4.21,0,0,1,.827.452,2.083,2.083,0,0,1,.189.155,4.871,4.871,0,0,1,.527.481,2.917,2.917,0,0,1,.2.235,4.642,4.642,0,0,1,.384.563,3.183,3.183,0,0,1,.162.3,4.8,4.8,0,0,1,.243.647c.044.134.062.191.077.25a4.4,4.4,0,0,1,.119.985,4.046,4.046,0,0,1-.117,1l0,.008-.01.039-.014.065a4.409,4.409,0,0,1-4.252,3.3Z" transform="translate(1383.996 -856.003)" fill="#3a3838"/><path d="M473.647,167.333h0a1.3,1.3,0,0,1,1.3,1.3h0a1.3,1.3,0,0,1-1.3,1.3h0a1.3,1.3,0,0,1-1.3-1.3h0A1.3,1.3,0,0,1,473.647,167.333Z" transform="translate(1383.996 -856.003)" fill="#3a3838"/><path d="M428.074,167.333h0a1.3,1.3,0,0,1,1.3,1.3h0a1.3,1.3,0,0,1-1.3,1.3h0a1.3,1.3,0,0,1-1.3-1.3h0A1.3,1.3,0,0,1,428.074,167.333Z" transform="translate(1383.996 -856.003)" fill="#3a3838"/><path d="M447.58,156.6" transform="translate(1383.996 -856.003)" fill="#ffd825"/></g></svg>