<svg xmlns="http://www.w3.org/2000/svg" width="72.746" height="26.976" viewBox="0 0 72.746 26.976"><g transform="translate(-384.572 -273.896)"><path d="M437.456,295.011a4.625,4.625,0,0,0,.165,1.271,5.081,5.081,0,0,0,9.841,0,4.664,4.664,0,0,0,.165-1.271,5.086,5.086,0,0,0-10.172,0Z" fill="#36deff"/><path d="M392.954,295.011a4.626,4.626,0,0,0,.165,1.271,5.081,5.081,0,0,0,9.841,0,4.664,4.664,0,0,0,.165-1.271,5.086,5.086,0,0,0-10.172,0Z" fill="#36deff"/><path d="M414.568,283.262l20.344,1.577,3.814-2.543-6.358-3.81-2-1.2a18.3,18.3,0,0,0-9.447-2.619H409.4a17.56,17.56,0,0,0-7.158,1.513l-4.692,2.06c-.42.191-.852.356-1.284.509l1.767,3.547Z" fill="#36deff"/><path d="M447.926,297.354l.131-.3H454a3.324,3.324,0,0,0,3.314-3.314,9.016,9.016,0,0,0-1.034-4.18c-.094-.175-.2-.369-.315-.549a9.014,9.014,0,0,0-3.63-3.324l-3.61-1.8a22.581,22.581,0,0,0-9.623-2.347l-.133,0-8.181-4.907a19.079,19.079,0,0,0-9.833-2.729H409.426a18.477,18.477,0,0,0-7.467,1.577l-4.709,2.067c-.395.178-.8.336-1.217.481l-.089.029a16.5,16.5,0,0,1-5.468.929h-.049a3.343,3.343,0,0,0-3.312,3.316v3.494l-2.543,2.539v2.862a5.879,5.879,0,0,0,5.864,5.863h2.126l.131.3a5.85,5.85,0,0,0,10.727,0l.131-.3h33.517l.13.3a5.851,5.851,0,0,0,10.728,0Zm-45.339-20.472a16.566,16.566,0,0,1,6.784-1.442h2.1l2.069,6.989-14.983-.876-1.192-2.375ZM393.12,291.9a5.532,5.532,0,0,0-.31.574l-.048.1c-.046.093-.093.185-.131.283a5.875,5.875,0,0,0-.215.689l-.043.155a1.454,1.454,0,0,0-.049.186,5.8,5.8,0,0,0-.115,1.126l0,.5h-1.772a4.326,4.326,0,0,1-4.314-4.314l-.005-2.221,2.094-2.094h4.267v-1.543H388.66v-3.043a1.741,1.741,0,0,1,.546-1.269,1.65,1.65,0,0,1,1.23-.5h.03a18.253,18.253,0,0,0,5.038-.71l.4-.116,1.385,2.778v6.7l-.386.091a6.63,6.63,0,0,0-1.049.324c-.059.025-.117.056-.174.086l-.146.075a5.67,5.67,0,0,0-.63.342c-.088.056-.173.122-.259.189a6.79,6.79,0,0,0-.577.469c-.1.094-.2.2-.293.3a5.659,5.659,0,0,0-.408.5C393.28,291.664,393.2,291.779,393.12,291.9Zm9.14,4.072-.026.125a4.309,4.309,0,0,1-8.352-.043A3.878,3.878,0,0,1,393.75,295a4.326,4.326,0,0,1,4.31-4.3h0a4.326,4.326,0,0,1,4.313,4.313A3.939,3.939,0,0,1,402.26,295.973Zm11.558-.463h-9.9l0-.5a5.911,5.911,0,0,0-.112-1.113c-.013-.063-.031-.122-.048-.18l-.048-.175a5.533,5.533,0,0,0-.216-.7c-.037-.092-.084-.187-.132-.282l-.044-.09A5.784,5.784,0,0,0,403,291.9c-.074-.117-.157-.233-.243-.35a6.386,6.386,0,0,0-.408-.5c-.1-.1-.194-.207-.3-.307a5.931,5.931,0,0,0-.5-.41l-.108-.081c-.074-.057-.149-.113-.228-.165a5.926,5.926,0,0,0-.619-.336l-.153-.078c-.058-.03-.116-.061-.177-.087a5.827,5.827,0,0,0-.972-.3l-.1-.029.074.022-.074-.022-.363-.121v-6.027l14.981.878Zm-.736-20.068,7.864,0h.012A17.532,17.532,0,0,1,430,277.949l7.3,4.378-2.575,1.726-19.55-1.527Zm2.279,20.068V284.1l18.8,1.457.005,4.224-2.293,5.734Zm21.344-.5v.5H433.53l2.175-5.438v-4.815l3.276-2.185.157,0a21.021,21.021,0,0,1,8.9,2.192l3.61,1.8a7.349,7.349,0,0,1,1.747,1.222l.919.864H450.69v1.543h4.441l.125.316a7.4,7.4,0,0,1,.523,2.726,1.779,1.779,0,0,1-1.77,1.772H448.42v-.5a5.858,5.858,0,1,0-11.715,0Zm5.858,4.321a4.306,4.306,0,0,1-4.178-3.267,3.78,3.78,0,0,1-.133-1.054,4.315,4.315,0,0,1,8.629.006,3.91,3.91,0,0,1-.116.958l-.032.145A4.326,4.326,0,0,1,442.563,299.327Z" fill="#3a3838"/><circle cx="1.271" cy="1.271" r="1.271" transform="translate(396.794 293.739)" fill="#3a3838"/><circle cx="1.271" cy="1.271" r="1.271" transform="translate(441.296 293.739)" fill="#3a3838"/></g></svg>