<svg xmlns="http://www.w3.org/2000/svg" width="52.985" height="31.904" viewBox="0 0 52.985 31.904"><g transform="translate(-556.845 -271.159)"><circle cx="5.472" cy="5.472" r="5.472" transform="translate(563.375 291.305)" fill="#36deff"/><circle cx="5.472" cy="5.472" r="5.472" transform="translate(598.031 291.305)" fill="#36deff"/><path d="M584.351,280.36a1.824,1.824,0,0,0-1.824-1.824h-8.193a3.649,3.649,0,0,0-3.508,2.646L569.8,284.76l-.045.158,14.592-3.648Z" fill="#36deff"/><path d="M557.9,292.181l3.329,1.487.319-.711.734-1.642L564.661,286h0l1.04-2.326-3.329-1.487Z" fill="#36deff"/><path d="M598.031,282.185h1.824v-3.648h-1.824a1.83,1.83,0,0,0-1.824,1.824,2.046,2.046,0,0,0,.018.246c.073.228.146.456.228.675A1.845,1.845,0,0,0,598.031,282.185Z" fill="#36deff"/><path d="M603.532,288.668h-.014c-.067,0-.129.005-.192.009l-.129.007-.029-.021-.964-.725a15.8,15.8,0,0,1-3.532-3.974c-.112-.182-.216-.376-.314-.562-.046-.086-.091-.171-.138-.256l-.081-.148h2.543v-5.273h-2.636a2.6,2.6,0,0,0-1.444.436l-.122.081-.375-1.694-1.08-5.389-4.378,1.1.393,1.575,2.725-.68.635,3.191-2.647,1.764v5.21l.856,1.5a6.037,6.037,0,0,1-1.22,7.479l-.029.025H581.125l-.029-.044a4.848,4.848,0,0,1,.919-6.387l.025-.021,3.139-.175v-5.486l-.024-.075a2.616,2.616,0,0,0-2.612-2.409h-8.194a4.505,4.505,0,0,0-4.289,3.236l-.892,3.124-3.078.74.7-1.561-4.811-2.149-5.132,11.477,3.908,1.746v3.254h1.888l.011.086a6.276,6.276,0,0,0,12.425,0l.012-.086h22.205l.012.085a6.279,6.279,0,1,0,11.239-4.655l-.052-.07.062-.061,1.275-1.276-.577-.573A8.149,8.149,0,0,0,603.532,288.668Zm-5.486-9.319h1.012v2.024h-1.012a1.029,1.029,0,0,1-.833-.435l-.012-.023q-.084-.236-.16-.474a.49.49,0,0,1,0-.086A1.014,1.014,0,0,1,598.046,279.349Zm-27.017,4.136.593-2.078a2.863,2.863,0,0,1,2.727-2.058h8.193a1.016,1.016,0,0,1,1.012,1.012v.271l-.076.019-12.5,3Zm-12.043,8.286,3.8-8.514.092.04,1.754.784-.04.091-3.76,8.418Zm14.447,5.938a4.689,4.689,0,0,1-4.572,3.728h0a4.684,4.684,0,0,1-4.566-3.728l-.025-.12h9.192Zm1.808-1.745H562.378l.012-2.734c.067-.122.139-.237.213-.354l.082-.131c.062-.1.126-.206.2-.3.088-.123.186-.239.28-.351l.065-.076c.041-.047.079-.094.116-.14.058-.07.114-.139.177-.205.118-.123.247-.237.371-.347l.087-.079c.09-.085.177-.168.272-.245.117-.093.241-.177.361-.258l.1-.066c.041-.028.081-.056.121-.086.075-.052.15-.106.229-.154.119-.073.244-.135.364-.194l.142-.072c.042-.02.082-.042.122-.063.08-.043.161-.086.244-.122.162-.071.332-.125.5-.179l.071-.023c.044-.015.087-.032.131-.048.078-.029.155-.058.235-.08a6.426,6.426,0,0,1,.663-.14l.116-.024a1.925,1.925,0,0,1,.2-.039,7.327,7.327,0,0,1,1.742-.035c.052.005.1.014.154.022l.084.013c.157.019.315.041.468.07.07.015.139.032.208.05l.132.032c.114.027.229.055.34.085.084.025.164.054.244.083l.043.016c.124.042.25.085.372.135.076.032.151.066.227.1l.054.025c.116.054.233.107.346.166.064.033.128.07.191.105l.08.045c.112.064.218.129.324.2.088.056.173.114.258.174.1.072.2.147.3.224.083.066.164.131.243.2s.168.15.252.227l.077.073c.058.056.117.111.171.168.09.091.174.187.258.284l.058.065c.047.054.094.107.138.161.08.1.152.2.225.3l.054.073c.044.06.087.118.128.18.069.1.134.214.2.323l.074.124c.029.047.057.093.082.14.1.192.2.387.279.58.013.027.018.038.023.05.087.206.167.425.236.645.014.044.026.089.037.134.007.029.014.058.022.086.042.145.086.3.12.463.01.05.019.1.026.148s.013.079.021.118c.019.117.038.232.053.349l.012.111Zm21.286-3.267-.038.067a8.167,8.167,0,0,0-.394.773l-.029.061c-.017.035-.034.07-.049.107a8.207,8.207,0,0,0-.322.945c-.013.051-.026.1-.038.153l-.017.07a7.9,7.9,0,0,0-.164.882c0,.024-.009.046-.014.07a.456.456,0,0,0-.01.051l-.01.088H577.835v-.1c0-.04-.011-.08-.018-.12l-.014-.094c-.025-.2-.054-.43-.1-.653-.013-.065-.031-.13-.048-.195-.01-.044-.022-.088-.033-.132l-.02-.088c-.035-.142-.069-.285-.111-.424-.023-.078-.051-.155-.079-.232l-.053-.146c-.049-.145-.1-.288-.157-.428-.034-.083-.072-.164-.11-.244l-.09-.193c-.052-.111-.1-.223-.162-.333-.048-.09-.1-.179-.152-.268l-.039-.067c-.077-.132-.155-.264-.239-.4-.071-.106-.146-.213-.221-.318q-.132-.184-.273-.366c-.08-.1-.165-.2-.251-.3-.1-.115-.2-.225-.3-.333-.089-.094-.182-.186-.276-.277-.109-.1-.221-.2-.335-.3-.1-.086-.2-.169-.3-.251-.117-.093-.24-.183-.363-.271-.1-.075-.209-.149-.318-.22-.129-.084-.261-.161-.4-.239-.112-.066-.223-.13-.336-.191s-.248-.123-.373-.181l-.119-.055c-.092-.042-.184-.085-.278-.123-.122-.051-.247-.095-.372-.139l-.184-.065c-.082-.029-.164-.059-.25-.084-.141-.043-.284-.077-.428-.111l-.074-.018-.14-.035c-.066-.017-.132-.034-.2-.048-.185-.035-.38-.061-.578-.087l-.131-.019c-.056-.009-.109-.018-.161-.023-.323-.03-.614-.046-.89-.046a9.265,9.265,0,0,0-1.212.084c-.074.011-.147.027-.22.042-.058.013-.116.025-.176.035-.28.05-.533.1-.778.164-.1.028-.2.063-.3.1l-.142.049c-.238.078-.464.151-.675.24-.12.052-.238.111-.354.169l-.085.043c-.056.027-.112.052-.169.078-.1.043-.194.087-.285.138l-.263.146,1.05-2.349.048-.012,18.252-4.378v1.853l-2.105.118-.2.146a6.442,6.442,0,0,0-2.587,5.182,6.513,6.513,0,0,0,1.419,4.038l.243.3h11.617l.222-.178a7.59,7.59,0,0,0,1.859-9.755l-.64-1.124v-3.91l1.389-.925.3,1.342a14.576,14.576,0,0,0,.4,1.466l.016.049c.074.23.144.448.224.66a18,18,0,0,0,1.583,3.252,17.44,17.44,0,0,0,3.591,4.133l.137.114-.17.056-.029.013a.368.368,0,0,1-.045.021,8.191,8.191,0,0,0-.919.395c-.033.017-.065.035-.1.054l-.069.039a8.346,8.346,0,0,0-.739.451l-.073.05c-.034.022-.067.045-.1.068a8.357,8.357,0,0,0-.761.627c-.03.027-.058.055-.085.082l-.06.06a8.3,8.3,0,0,0-.582.631c-.021.029-.047.058-.072.089l-.093.114h0a8.373,8.373,0,0,0-.525.76C596.573,292.616,596.551,292.656,596.527,292.7Zm.711,3.263-.129.087-.006-.182a.474.474,0,0,1,.008-.075,6.6,6.6,0,0,1,.223-.958c.01-.03.021-.059.031-.087l.017-.049a6.5,6.5,0,0,1,.383-.9l.032-.056a6.688,6.688,0,0,1,.551-.863,6.3,6.3,0,0,1,.69-.769l.056-.056a6.783,6.783,0,0,1,.78-.623l.079-.054a6.769,6.769,0,0,1,.876-.487l.087-.037a6.4,6.4,0,0,1,.966-.34l.074-.016a6.211,6.211,0,0,1,1.058-.175h.025a6.244,6.244,0,0,1,4.361,1.266l.09.07-.68.68c-.236.236-.5.477-.814.739-.085.071-.172.139-.259.2-.183.147-.387.3-.623.463l-.1.071c-.067.047-.133.093-.2.137-.245.16-.5.315-.789.472l-.043.027c-.051.028-.1.052-.152.079s-.1.051-.151.078q-.33.168-.641.3l-.095.043c-.051.023-.1.047-.161.071a10.666,10.666,0,0,1-1.237.434c-.043.013-.089.024-.135.036s-.064.014-.1.024c-.234.063-.46.123-.688.172-.1.021-.211.04-.316.058l-.117.021c-.208.034-.45.073-.7.1-.121.014-.245.029-.37.039-.418.035-.762.051-1.081.051Zm7.292.916h-.01a1.012,1.012,0,0,1-2,.072l-.014-.08.139-.054c.114-.04.219-.081.326-.121l.043-.018c.3-.112.588-.234.868-.363l.088-.039c.069-.031.138-.062.2-.093l.123-.055.048.066a1,1,0,0,1,.19.585Zm3.614.481-.014.106h-.006a4.663,4.663,0,0,1-4.6,3.972,4.932,4.932,0,0,1-.593-.037,4.649,4.649,0,0,1-3.989-3.723l-.023-.111.113-.008c.069-.005.137-.014.2-.021l.13-.016c.241-.022.472-.043.7-.076s.432-.073.642-.115l.227-.039.021.09a2.632,2.632,0,1,0,5.125-1.2,2.585,2.585,0,0,0-.325-.787l-.051-.082.08-.054c.05-.033.1-.069.15-.1l.058-.039c.137-.09.278-.184.411-.287.3-.221.563-.435.817-.655l.085-.074.079.08A4.672,4.672,0,0,1,608.144,297.357Z" fill="#3a3838"/></g></svg>