<svg xmlns="http://www.w3.org/2000/svg" width="74.518" height="30.257" viewBox="0 0 74.518 30.257"><g transform="translate(-1881.367 700.007)"><path d="M551.537,180.24a4.757,4.757,0,0,0,.169,1.3,5.2,5.2,0,0,0,10.078,0,4.661,4.661,0,0,0,.169-1.276,2.437,2.437,0,0,0-.026-.443,2.592,2.592,0,0,0-.052-.456,1.332,1.332,0,0,0-.065-.312.047.047,0,0,0-.013-.039,1.4,1.4,0,0,0-.078-.312.08.08,0,0,0-.013-.052,4.375,4.375,0,0,0-.378-.885,3.752,3.752,0,0,0-.26-.43,5.208,5.208,0,0,0-2.773-2.07,3.907,3.907,0,0,0-.755-.169h-.028a1.379,1.379,0,0,0-.326-.039c-.156-.013-.326-.026-.482-.026s-.326.013-.495.026a3.352,3.352,0,0,0-.508.078c-.169.039-.339.078-.508.13a5.729,5.729,0,0,0-.924.391,4.636,4.636,0,0,0-.534.339,1.774,1.774,0,0,0-.2.143,4.413,4.413,0,0,0-.9.9,1.766,1.766,0,0,0-.143.2,4.631,4.631,0,0,0-.339.534,5.721,5.721,0,0,0-.391.924c-.052.169-.091.339-.13.508a3.352,3.352,0,0,0-.078.508C551.55,179.889,551.537,180.058,551.537,180.24Z" transform="translate(1383.996 -856.003)" fill="#ffd825"/><path d="M505.965,180.24a4.755,4.755,0,0,0,.169,1.3,5.2,5.2,0,0,0,10.078,0,4.752,4.752,0,0,0,.169-1.3,5.2,5.2,0,0,0-3.906-5.039,4.754,4.754,0,0,0-1.3-.169,5.207,5.207,0,0,0-5.21,5.2Z" transform="translate(1383.996 -856.003)" fill="#ffd825"/><path d="M512.475,167.222h36.458l3.906-2.6-6.51-3.906-2.044-1.224a18.745,18.745,0,0,0-9.674-2.682H503.668a2.6,2.6,0,0,0-2.329,1.44l-3.186,6.372v2.6Z" transform="translate(1383.996 -856.003)" fill="#ffd825"/><path d="M562.269,182.64l.13-.3h6.084a3.415,3.415,0,0,0,3.406-3.406v-5.206a3.409,3.409,0,0,0-2.31-3.227l-.308-.1-.029-.324c-.013-.145-.027-.284-.049-.4a6.026,6.026,0,0,0-5.476-4.91l-10.6-.935-8.392-5.034a19.558,19.558,0,0,0-10.081-2.8H503.678a3.362,3.362,0,0,0-3.034,1.881l-3.273,6.544v11.908a6.027,6.027,0,0,0,6.011,6.01h2.18l.13.3a6,6,0,0,0,11.006,0l.131-.3h34.3l.131.3a6,6,0,0,0,11.006,0ZM526.11,157.6l1.1,8.813H513.522l2.205-8.813Zm-24.034,1a1.8,1.8,0,0,1,1.607-1H514.07l-2.2,8.813H498.979l-.005-1.61Zm3.107,21.638-.015.12-.1.379-.391,0h-1.3a4.418,4.418,0,0,1-4.406-4.406v-4.412h3.906v-1.6h-3.908v-2.3h12.719v6.2h-.5A6.028,6.028,0,0,0,505.183,180.242Zm10.3.989-.026.128a4.4,4.4,0,0,1-8.529-.044,3.853,3.853,0,0,1-.136-1.075,4.417,4.417,0,0,1,4.405-4.4,3.932,3.932,0,0,1,.991.117l.124.025a4.388,4.388,0,0,1,3.293,4.262A4.092,4.092,0,0,1,515.482,181.231Zm11.835-.484-1.583,0H517.2v-.5a6.013,6.013,0,0,0-.08-.956c-.01-.062-.025-.12-.04-.18l-.03-.124a6.067,6.067,0,0,0-.157-.615c-.02-.061-.047-.127-.074-.193l-.065-.164c-.064-.161-.132-.328-.214-.489-.063-.122-.131-.24-.2-.359a4.794,4.794,0,0,0-.27-.408c-.093-.13-.179-.244-.271-.355s-.206-.234-.314-.345c-.125-.128-.219-.226-.325-.318-.081-.07-.162-.131-.243-.193l-.117-.089c-.117-.09-.245-.189-.377-.273-.095-.061-.2-.113-.3-.165l-.263-.142c-.084-.046-.164-.091-.253-.13l-.3-.13-.02-.339v-6.253h14.025Zm.41-23.137h6.909a17.951,17.951,0,0,1,9.259,2.572l7.465,4.476-2.649,1.767H528.77v-.472Zm1.2,23.135V168.027h19.229l-.035,6.946-2.309,5.772Zm22.94-3.976a5.843,5.843,0,0,0-.4.631,6.766,6.766,0,0,0-.446,1.059c-.054.181-.1.37-.143.559a4.3,4.3,0,0,0-.1.686c-.012.185-.025.356-.025.54v.5h-3.219l2.221-5.554v-7.538l3.316-2.21,10.523.929a4.4,4.4,0,0,1,3.953,3.336l.154.62h-5.227v1.6h6.01a1.8,1.8,0,0,1,1.8,1.8v1.8l-2.6.01v1.6h2.6v1.8a1.8,1.8,0,0,1-1.8,1.8h-5.714l.005-.506a3.418,3.418,0,0,0-.025-.464,3.377,3.377,0,0,0-.054-.468c-.017-.136-.034-.236-.056-.335l-.1-.5-.138-.322a5.487,5.487,0,0,0-.349-.762,4.1,4.1,0,0,0-.275-.459l-.087-.116a5.7,5.7,0,0,0-2.941-2.26c-.069-.022-.148-.043-.221-.059a4.893,4.893,0,0,0-.874-.192,1.735,1.735,0,0,0-.346-.041,6.991,6.991,0,0,0-1.139,0,3.474,3.474,0,0,0-.526.077l-.1.021c-.19.043-.378.087-.576.148a6.7,6.7,0,0,0-1.088.464,5.825,5.825,0,0,0-.578.365,1.549,1.549,0,0,0-.16.119,4.533,4.533,0,0,0-.625.532,3.759,3.759,0,0,0-.461.53C551.977,176.611,551.915,176.69,551.862,176.769Zm4.912,7.887a4.453,4.453,0,0,1-1.112-.143,4.4,4.4,0,0,1-3.165-3.2,3.822,3.822,0,0,1-.136-1.077c0-.134.009-.264.023-.454a2.791,2.791,0,0,1,.06-.4c.035-.151.069-.3.111-.437a5,5,0,0,1,.314-.759,4.65,4.65,0,0,1,.358-.56l.11-.146a2.869,2.869,0,0,1,.321-.361,2.692,2.692,0,0,1,.344-.3l.25-.184a3.888,3.888,0,0,1,.4-.253,5,5,0,0,1,.791-.337c.158-.048.308-.083.465-.119a2.51,2.51,0,0,1,.408-.06l.226-.012c.213,0,.388,0,.7.018l.3.044a3.3,3.3,0,0,1,.538.132,4.482,4.482,0,0,1,2.359,1.79,2.764,2.764,0,0,1,.2.337,3.7,3.7,0,0,1,.259.571l.209.845a1.17,1.17,0,0,1,.028.235l.019.2a1.792,1.792,0,0,1,.006.284,3.787,3.787,0,0,1-.117.934l-.026.119a4.409,4.409,0,0,1-4.252,3.3Z" transform="translate(1383.996 -856.003)" fill="#3a3838"/><path d="M511.2,178.939h0a1.3,1.3,0,0,1,1.3,1.3h0a1.3,1.3,0,0,1-1.3,1.3h0a1.3,1.3,0,0,1-1.3-1.3h0A1.3,1.3,0,0,1,511.2,178.939Z" transform="translate(1383.996 -856.003)" fill="#3a3838"/><path d="M511.2,178.939h0a1.3,1.3,0,0,1,1.3,1.3h0a1.3,1.3,0,0,1-1.3,1.3h0a1.3,1.3,0,0,1-1.3-1.3h0A1.3,1.3,0,0,1,511.2,178.939Z" transform="translate(1429.604 -856.003)" fill="#3a3838"/></g></svg>