<svg xmlns="http://www.w3.org/2000/svg" width="51.075" height="38.504" viewBox="0 0 51.075 38.504"><path d="M324.413,35.516h-5.889a1.494,1.494,0,0,0-1.493,1.493v1.8a1.493,1.493,0,0,0,1.493,1.493h5.889a1.493,1.493,0,0,0,1.493-1.493v-1.8A1.493,1.493,0,0,0,324.413,35.516Zm0,0" transform="translate(-285.405 -32.023)" fill="#36deff"/><path d="M270.6,51.516h3.2v3.192h-3.2a1.6,1.6,0,0,1,0-3.192Zm0,0" transform="translate(-242.166 -46.426)" fill="#fff"/><path d="M393.577,285.272a4.788,4.788,0,1,1-4.788-4.788A4.789,4.789,0,0,1,393.577,285.272Zm0,0" transform="translate(-345.694 -252.554)" fill="#fff"/><path d="M59.208,104.757H45.07a3.923,3.923,0,0,1-3.418,2H10.128V106A14.206,14.206,0,0,1,24.334,91.8H31.41a2.011,2.011,0,0,1,2.011,2.011v8.959h5.308a4.952,4.952,0,0,0,4.952-4.947l.014-14.3h3.541L50,95.984h.437a8.774,8.774,0,0,1,8.774,8.774Zm0,0" transform="translate(-9.118 -75.235)" fill="#36deff"/><path d="M85.576,285.272a4.788,4.788,0,1,1-4.788-4.788A4.789,4.789,0,0,1,85.576,285.272Zm0,0" transform="translate(-68.419 -252.554)" fill="#fff"/><path d="M64.742,249.838A7.385,7.385,0,0,0,52.8,244.026h0a7.372,7.372,0,0,0-2.827,5.811Zm0,0" transform="translate(-44.987 -218.317)" fill="#fff"/><path d="M409.99,43.139h-2a2,2,0,0,1,0-3.99h2Zm0,0" transform="translate(-365.499 -35.293)" fill="#fff"/><path d="M18.378,10.5h6.435a2,2,0,0,1,2,2V24.071a2,2,0,0,1-2,2H12a2,2,0,0,1-2-2V18.881A8.378,8.378,0,0,1,18.378,10.5Zm0,0" transform="translate(-9.003 -9.506)" fill="#fff"/><path d="M184.128,130.494h-3.641a2,2,0,0,1,0-3.99h3.641a2,2,0,0,1,0,3.99Zm0,0" transform="translate(-160.687 -113.934)" fill="#fff"/><path d="M209.529,366.453a1,1,0,1,0,.705.292A1,1,0,0,0,209.529,366.453Zm0,0" transform="translate(-187.729 -329.947)" fill="#3a3838"/><path d="M41.668,20.258l-2.325-10.5a2.49,2.49,0,0,0,1.57-.866,2.975,2.975,0,0,0,1.582.454h2a1,1,0,0,0,1-1V4.355a1,1,0,0,0-1-1h-2a2.973,2.973,0,0,0-1.623.48,2.485,2.485,0,0,0-1.865-.843H33.118a2.5,2.5,0,0,0-2.324,1.6H28.43a2.594,2.594,0,0,0,0,5.187h5.135v2.01a1,1,0,0,0,2,0V9.778h1.746l2.5,11.314L35.07,29.533a2.93,2.93,0,0,1-2.549,1.49H20.69a8.393,8.393,0,0,0-8.321-7.385A8.3,8.3,0,0,0,7.2,25.424l-.006,0a8.331,8.331,0,0,0-3.145,5.594H2A13.224,13.224,0,0,1,15.2,18.058h7.076a1.015,1.015,0,0,1,1.013,1.014V28.03a1,1,0,0,0,1,1H29.6a5.95,5.95,0,0,0,5.949-5.943l.005-3.314a1,1,0,0,0-1-1h0a1,1,0,0,0-1,1l-.005,3.315a3.954,3.954,0,0,1-3.954,3.95H25.288V19.071a2.992,2.992,0,0,0-.354-1.414,2.992,2.992,0,0,0-1.492-5.585H19.8a2.979,2.979,0,0,0-1,.171V3.492A3,3,0,0,0,15.811.5H9.375A9.39,9.39,0,0,0,.118,8.392a1,1,0,0,0-.046.3c0,.006,0,.012,0,.018A9.421,9.421,0,0,0,0,9.875v5.189a3,3,0,0,0,2.546,2.959l2.209,2.209A15.162,15.162,0,0,0,0,31.266v.754a1,1,0,0,0,1,1H6.6a1.019,1.019,0,0,0-.02.2A5.758,5.758,0,0,0,8,37.005H1a1,1,0,1,0,0,2H12.254c.039,0,.077,0,.115,0a5.792,5.792,0,0,0,5.786-5.786,1.019,1.019,0,0,0-.02-.2H32.521a4.929,4.929,0,0,0,3.959-2h1.263a5.769,5.769,0,0,0,.983,5.985H25.79a1,1,0,0,0,0,2H42.979c.039,0,.077,0,.115,0a5.783,5.783,0,0,0,5.351-7.984h1.632a1,1,0,0,0,1-1,9.784,9.784,0,0,0-9.406-9.765ZM19.8,14.067h3.641a1,1,0,0,1,0,2H19.8a1,1,0,0,1,0-2ZM1.995,9.875c0-.062,0-.123,0-.184H12.915a1,1,0,0,0,0-2H2.324a7.393,7.393,0,0,1,7.051-5.2H15.81a1,1,0,0,1,1,1V15.064a1,1,0,0,1-1,1H2.992a1,1,0,0,1-1-1ZM5.4,18.057H7.684a15.193,15.193,0,0,0-1.387.9ZM16.16,33.217a3.794,3.794,0,0,1-3.752,3.79l-.039,0h-.115a3.794,3.794,0,0,1-3.676-3.788,1.019,1.019,0,0,0-.02-.2H16.18a1.019,1.019,0,0,0-.02.2Zm-10.1-2.195A6.346,6.346,0,0,1,8.424,27l.009-.007a6.322,6.322,0,0,1,3.936-1.357,6.4,6.4,0,0,1,6.31,5.39ZM42.5,5.352h1v2h-1a1,1,0,0,1,0-2ZM27.831,7.185a.6.6,0,0,1,.6-.6h2.2v.7a2.5,2.5,0,0,0,.049.5H28.43a.6.6,0,0,1-.6-.6Zm6.731.6H33.118a.5.5,0,0,1-.5-.5v-1.8a.5.5,0,0,1,.5-.5h5.889a.5.5,0,0,1,.5.5v1.8a.5.5,0,0,1-.5.5ZM46.885,33.218a3.794,3.794,0,0,1-3.752,3.79l-.039,0h-.115a3.79,3.79,0,0,1-2.974-5.985h6.177a3.785,3.785,0,0,1,.7,2.2Zm-9.241-4.193,3.8-6.775a7.787,7.787,0,0,1,7.568,6.775Zm0,0" transform="translate(0 -0.499)" fill="#3a3838"/><path d="M337.453,145.663a1,1,0,0,0,0-2h0a1,1,0,1,0,0,2Zm0,0" transform="translate(-302.891 -129.386)" fill="#3a3838"/></svg>