<svg xmlns="http://www.w3.org/2000/svg" width="76.672" height="31.023" viewBox="0 0 76.672 31.023"><g transform="translate(-465.682 -272.934)"><circle cx="5.37" cy="5.37" r="5.37" transform="translate(474.458 292.473)" fill="#36deff"/><circle cx="5.37" cy="5.37" r="5.37" transform="translate(521.449 292.473)" fill="#36deff"/><path d="M517.421,273.677h-18.8v10.741H524.13Z" fill="#36deff"/><path d="M538.446,287.56a10.761,10.761,0,0,0-7.6-3.142h-2.685l5.37,5.37h6.606A8.022,8.022,0,0,0,538.446,287.56Z" fill="#36deff"/><path d="M471.778,284.418h-2.69A2.693,2.693,0,0,0,466.4,287.1v2.685h5.375Z" fill="#36deff"/><path d="M485.84,299.062l.1-.48h34.816l.1.48a6.113,6.113,0,0,0,11.979,0l.1-.48h9.425v-3.428a11.43,11.43,0,0,0-1.479-5.6l-.079-.152A8.779,8.779,0,0,0,539,287.044a11.56,11.56,0,0,0-8.116-3.369h-6.32l-6.713-10.741H497.9v6.713H468.367v4.1l-.4.142a3.428,3.428,0,0,0-2.284,3.217v11.477h8.081l.1.48a6.113,6.113,0,0,0,11.979,0Zm41,3.409h-.025a4.462,4.462,0,1,1,.025,0Zm4.635-17.288a9.973,9.973,0,0,1,6.4,2.833l1.049,1.028-1.469,0h-3.592l-3.961-3.956ZM504.76,274.419h12.272l5.784,9.255H504.76Zm0,10.741h15.266l-5.651,7.913H504.76Zm-5.369-10.741h3.884v9.255H499.39Zm0,10.741h3.884v7.913H499.39Zm-29.538-4.028H497.9v2.543H469.853Zm-2.686,5.969a1.947,1.947,0,0,1,1.942-1.942h1.944v3.885h-3.886Zm7.542,7.452a5.649,5.649,0,0,0-.347.64l-.085.167a1.584,1.584,0,0,0-.086.176,6.252,6.252,0,0,0-.319,1.021l-.128.581-.487-.039h-6.092v-6.57h5.371v-5.37H497.9v9.4H515.14l6.713-9.4h6.024l5.37,5.37h6.484l.164.339a9.855,9.855,0,0,1,.973,4.292l0,1.939h-7.937l-.1-.48a6.884,6.884,0,0,0-.336-1.08,1.848,1.848,0,0,0-.086-.178l-.082-.161a6.519,6.519,0,0,0-.357-.656c-.051-.078-.111-.158-.173-.24l-.077-.1a6.769,6.769,0,0,0-.435-.528c-.1-.1-.206-.207-.318-.309a5.942,5.942,0,0,0-.513-.423c-.129-.1-.246-.179-.368-.257a6.215,6.215,0,0,0-.6-.325l-.123-.06c-.09-.044-.18-.088-.272-.125a5.839,5.839,0,0,0-.717-.222l-.166-.046a1.826,1.826,0,0,0-.2-.054,5.788,5.788,0,0,0-2.323,0c-.06.012-.115.028-.171.044l-.2.056a6.562,6.562,0,0,0-.736.229c-.069.027-.142.063-.216.1l-.165.08a6.377,6.377,0,0,0-.609.33c-.119.075-.231.157-.356.25a6.394,6.394,0,0,0-.522.429c-.095.088-.208.194-.315.309a5.711,5.711,0,0,0-.43.521c-.088.111-.177.228-.259.354a5.848,5.848,0,0,0-.347.64l-.085.167a1.784,1.784,0,0,0-.086.176,6.155,6.155,0,0,0-.318,1.021l-.1.467-.5.075h-34.34l-.1-.48a6.774,6.774,0,0,0-.337-1.08,1.466,1.466,0,0,0-.086-.178l-.082-.161a6.315,6.315,0,0,0-.356-.656c-.051-.078-.111-.158-.173-.24l-.077-.1a6.776,6.776,0,0,0-.436-.528c-.1-.1-.207-.207-.317-.309a5.806,5.806,0,0,0-.514-.423c-.129-.1-.245-.179-.367-.257a6.208,6.208,0,0,0-.6-.325l-.123-.06c-.09-.044-.18-.088-.272-.125a5.809,5.809,0,0,0-.717-.222l-.166-.046a1.824,1.824,0,0,0-.2-.054,5.788,5.788,0,0,0-2.323,0c-.06.012-.115.028-.171.044l-.2.056a6.572,6.572,0,0,0-.736.228c-.078.032-.16.072-.244.113l-.137.067a6.375,6.375,0,0,0-.609.33c-.119.075-.231.157-.356.25a6.374,6.374,0,0,0-.521.428c-.109.1-.216.2-.317.311a6.238,6.238,0,0,0-.431.522C474.88,294.31,474.79,294.427,474.709,294.553Zm5.142,7.918h-.043a4.543,4.543,0,1,1,.043,0Z" fill="#3a3838"/><circle cx="1.342" cy="1.342" r="1.342" transform="translate(478.513 296.5)" fill="#3a3838"/><circle cx="1.342" cy="1.342" r="1.342" transform="translate(525.504 296.5)" fill="#3a3838"/></g></svg>